<?xml version="1.0" encoding="UTF-8"?>
<svg version="1.1" xmlns="http://www.w3.org/2000/svg" width="756" height="342">
<path d="M0 0 C3.5 0.375 3.5 0.375 6.3125 2.5 C13.15629965 11.49470811 11.70634106 24.55344972 11.6875 35.3125 C11.68656342 36.00130249 11.68562683 36.69010498 11.68466187 37.39978027 C11.61409321 61.35697094 10.21320763 85.69757574 -6.6875 104.1875 C-13.24109605 110.4595842 -21.70354113 114.93753141 -30.8125 115.625 C-37.12024551 115.19735624 -41.91835366 112.67897081 -46.5 108.375 C-46.5 107.715 -46.5 107.055 -46.5 106.375 C-47.26352783 106.96051636 -47.26352783 106.96051636 -48.04248047 107.55786133 C-54.25143546 112.03644052 -60.26295558 114.14653937 -67.625 116.0625 C-69.71204979 116.62479393 -71.79802258 117.19110305 -73.8828125 117.76171875 C-75.34340088 118.16076416 -75.34340088 118.16076416 -76.83349609 118.56787109 C-79.15363395 119.27015783 -81.28246146 120.07891772 -83.484375 121.08203125 C-87.56273443 122.83065427 -90.33691826 122.78037154 -94.5 121.375 C-99.89499123 117.29586029 -104.47057549 110.43384902 -107.5 104.375 C-107.82871094 104.931875 -108.15742187 105.48875 -108.49609375 106.0625 C-114.31249343 115.39395964 -121.96902405 122.70726099 -132.5 126.375 C-139.23044283 127.86962248 -144.40344013 127.96121169 -150.5 124.375 C-155.98312611 120.40874778 -155.98312611 120.40874778 -157.5 117.375 C-158.28375 118.2 -159.0675 119.025 -159.875 119.875 C-162.5 122.375 -162.5 122.375 -164.5 122.375 C-164.9640625 123.5815625 -164.9640625 123.5815625 -165.4375 124.8125 C-166.5 127.375 -166.5 127.375 -167.5 128.375 C-173.94520389 128.93062103 -177.21894677 128.13267249 -182.5 124.375 C-187.19512567 119.18565058 -187.6417216 115.90759777 -187.59765625 109.0859375 C-187.59553383 107.85830185 -187.59553383 107.85830185 -187.59336853 106.60586548 C-187.5877629 103.98720675 -187.57520948 101.36863296 -187.5625 98.75 C-187.55748572 96.97656373 -187.55292269 95.20312613 -187.54882812 93.4296875 C-187.53779164 89.07809218 -187.52052325 84.7265605 -187.5 80.375 C-189.75109107 86.41917561 -191.88770015 92.48988655 -193.90234375 98.6171875 C-194.53442678 100.51833644 -195.16651654 102.41948333 -195.79956055 104.3203125 C-196.22788148 105.61593005 -196.6513221 106.91317036 -197.07006836 108.21191406 C-197.68770504 110.12240647 -198.32605705 112.02616238 -198.96484375 113.9296875 C-199.332146 115.04843262 -199.69944824 116.16717773 -200.07788086 117.31982422 C-201.9571452 121.357097 -204.47435598 124.36217799 -208.5 126.375 C-215.54398047 127.09837173 -221.69072006 126.72832006 -227.5 122.375 C-229.9991698 118.6262453 -229.88330732 115.70870687 -229.5 111.375 C-228.68969727 107.68457031 -228.68969727 107.68457031 -227.56640625 103.953125 C-227.36901352 103.28585388 -227.17162079 102.61858276 -226.96824646 101.93109131 C-226.34314017 99.82586937 -225.70328437 97.72549647 -225.0625 95.625 C-224.63635147 94.20212751 -224.21121265 92.77895219 -223.78710938 91.35546875 C-223.01097042 88.75089558 -222.22794917 86.14882664 -221.43969727 83.54785156 C-220.73358896 81.16370413 -220.07157483 78.79375117 -219.5 76.375 C-220.89798828 76.30152344 -220.89798828 76.30152344 -222.32421875 76.2265625 C-228.78017566 75.84795229 -235.20871078 75.39301625 -241.625 74.5625 C-242.63820313 74.43230469 -243.65140625 74.30210938 -244.6953125 74.16796875 C-249.34523424 72.85329728 -251.86132881 70.33300679 -254.5 66.375 C-255.03625 67.2825 -255.5725 68.19 -256.125 69.125 C-258.35745745 72.4896323 -260.97284273 74.38138937 -264.5 76.375 C-265.16 76.375 -265.82 76.375 -266.5 76.375 C-266.5 77.035 -266.5 77.695 -266.5 78.375 C-265.778125 78.58125 -265.05625 78.7875 -264.3125 79 C-260.51544 80.85634044 -259.0018692 82.96967803 -256.5 86.375 C-253.66987909 94.86536274 -254.85914988 105.28422195 -258.5 113.375 C-266.33643714 128.6460057 -279.9678372 138.4855826 -293.5 148.375 C-294.47710937 149.09042969 -295.45421875 149.80585938 -296.4609375 150.54296875 C-309.97784483 160.20094828 -309.97784483 160.20094828 -316.5 162.375 C-314.76969709 162.09015154 -313.04079286 161.79680062 -311.3125 161.5 C-310.34957031 161.33757812 -309.38664062 161.17515625 -308.39453125 161.0078125 C-305.53475037 160.48665306 -305.53475037 160.48665306 -303.171875 159.328125 C-299.41147501 157.98669577 -295.90091855 158.00680415 -291.9375 158 C-291.18275391 157.97550781 -290.42800781 157.95101562 -289.65039062 157.92578125 C-286.17091662 157.90738755 -283.92895496 158.09014709 -281 160.03515625 C-278.17095922 164.44816517 -278.95212115 169.33187416 -279.5 174.375 C-280.62530128 179.0057362 -282.50048571 181.77257632 -286.5 184.375 C-288.56037185 185.32245078 -290.64600637 186.21632865 -292.75 187.0625 C-293.82765625 187.49949219 -294.9053125 187.93648437 -296.015625 188.38671875 C-296.83546875 188.71285156 -297.6553125 189.03898438 -298.5 189.375 C-297.84 190.365 -297.18 191.355 -296.5 192.375 C-295.81242743 197.46783401 -295.87011842 201.98401151 -298 206.6875 C-302.87246109 211.92539567 -308.15314106 215.56903005 -314.8359375 218.125 C-317.36360124 220.02371455 -317.70145986 222.40668919 -318.5 225.375 C-317.53578125 224.67632812 -316.5715625 223.97765625 -315.578125 223.2578125 C-314.30219231 222.33839041 -313.02614459 221.41912795 -311.75 220.5 C-311.11578125 220.03980469 -310.4815625 219.57960937 -309.828125 219.10546875 C-300.89328583 212.6835531 -300.89328583 212.6835531 -295.5 213.375 C-292.55065714 215.4504635 -291.76315606 218.09079423 -290.5 221.375 C-290.04149658 220.14048096 -289.58299316 218.90596191 -289.1105957 217.6340332 C-287.38739007 212.99491867 -285.66319477 208.35617246 -283.9387207 203.7175293 C-283.19659432 201.72088276 -282.45472607 199.72414026 -281.71313477 197.72729492 C-279.31627326 191.27370897 -276.91250626 184.82275408 -274.5 178.375 C-274.23191528 177.65682098 -273.96383057 176.93864197 -273.68762207 176.19869995 C-273.00558409 174.37568122 -272.31752004 172.55492002 -271.62890625 170.734375 C-271.26740479 169.7762793 -270.90590332 168.81818359 -270.53344727 167.83105469 C-268.24472168 162.39174936 -265.13053718 157.7566724 -259.68359375 155.02734375 C-250.22793685 152.20248739 -234.24459953 153.95117612 -225.22265625 157.7578125 C-218.20122624 161.9283606 -214.61335167 168.63395906 -212.5 176.375 C-211.43794648 182.9207176 -212.7999192 187.92617784 -216.5 193.375 C-218.73290861 196.16254972 -221.06613974 198.75391972 -223.5 201.375 C-221.52 204.345 -219.54 207.315 -217.5 210.375 C-215.85 209.715 -214.2 209.055 -212.5 208.375 C-211.17367523 208.14536201 -209.84417022 207.93309084 -208.51171875 207.7421875 C-205.10224702 206.90998569 -203.71030344 205.86431758 -201.76953125 202.9453125 C-200.9265363 201.47705422 -200.10885382 199.99406943 -199.3125 198.5 C-198.37674227 196.8628395 -197.43781336 195.22748842 -196.49609375 193.59375 C-196.01124512 192.73910156 -195.52639648 191.88445312 -195.02685547 191.00390625 C-192.4549419 186.57564189 -189.67302725 182.28780644 -186.875 178 C-186.32690674 177.15896729 -185.77881348 176.31793457 -185.21411133 175.45141602 C-170.10037009 152.4419971 -170.10037009 152.4419971 -164.140625 150.67578125 C-157.15391037 150.71002985 -152.63066159 152.60940472 -147.5 157.375 C-139.18865896 166.95193161 -135.8459615 179.20160408 -134.25 191.5 C-134.08508057 192.68070068 -133.92016113 193.86140137 -133.75024414 195.07788086 C-132.76713251 202.40403469 -132.11295748 209.67559054 -131.86669922 217.06079102 C-131.62833486 223.18618416 -130.6680444 229.10207248 -129.42749023 235.10180664 C-127.94866585 242.74969662 -128.38943357 249.4091024 -132.375 256.25 C-132.88804687 257.15492188 -133.40109375 258.05984375 -133.9296875 258.9921875 C-136.05391714 262.21552104 -137.39982491 264.03446961 -141.125 265.1875 C-148.31627402 265.58701522 -154.07863458 263.84146326 -159.703125 259.296875 C-163.03148914 255.73697248 -166.5 250.38968628 -166.5 245.375 C-167.263125 245.54 -168.02625 245.705 -168.8125 245.875 C-173.72145849 246.54062149 -178.55435114 246.45420078 -183.5 246.375 C-183.89058594 247.45394531 -183.89058594 247.45394531 -184.2890625 248.5546875 C-185.5498247 251.49104333 -187.04373523 253.88504987 -188.875 256.5 C-189.46023438 257.34820312 -190.04546875 258.19640625 -190.6484375 259.0703125 C-193.53940288 262.66877151 -195.63586298 264.15151629 -200.125 265.3125 C-206.69484759 265.91422436 -212.48578196 263.04637241 -217.4375 258.9375 C-218.118125 258.091875 -218.79875 257.24625 -219.5 256.375 C-220.11875 255.611875 -220.7375 254.84875 -221.375 254.0625 C-223.29036556 249.48690451 -222.25861779 245.24923219 -220.4375 240.75 C-219.28068221 237.81939493 -219.2916821 235.49976854 -219.5 232.375 C-219.83 231.715 -220.16 231.055 -220.5 230.375 C-221.056875 231.426875 -221.61375 232.47875 -222.1875 233.5625 C-224.07373845 237.12539484 -226.6143858 239.57657702 -229.5 242.375 C-230.43556108 243.33928662 -231.36777199 244.30683315 -232.296875 245.27734375 C-237.92494009 251.09386332 -243.34268831 256.45040742 -250.5 260.375 C-251.3353125 260.85066406 -252.170625 261.32632812 -253.03125 261.81640625 C-264.4309969 267.68482435 -277.13999144 270.26320585 -289.5 273.375 C-290.70668335 273.68957153 -290.70668335 273.68957153 -291.93774414 274.01049805 C-296.26328318 275.13041906 -300.01709862 275.81450013 -304.5 275.375 C-306.99119486 273.84813864 -307.36788494 272.86382574 -308.125 270.0625 C-307.14887463 265.86516089 -304.01803647 263.69117333 -300.5 261.375 C-299.84 261.375 -299.18 261.375 -298.5 261.375 C-299.16 259.725 -299.82 258.075 -300.5 256.375 C-301.22445313 256.91769531 -301.94890625 257.46039063 -302.6953125 258.01953125 C-303.66210938 258.73496094 -304.62890625 259.45039063 -305.625 260.1875 C-306.57632812 260.89519531 -307.52765625 261.60289062 -308.5078125 262.33203125 C-313.94072993 266.04145137 -318.72358141 267.93553289 -325.25 268.6875 C-326.30453369 268.81257935 -326.30453369 268.81257935 -327.38037109 268.94018555 C-335.40490005 269.75516238 -342.61561986 268.75596918 -349.5 264.375 C-353.51007122 261.03970038 -355.62152298 258.2688219 -357.5 253.375 C-357.60546143 254.40906982 -357.71092285 255.44313965 -357.81958008 256.50854492 C-358.2154787 260.35836953 -358.62744293 264.20633616 -359.04418945 268.05395508 C-359.22205637 269.71690553 -359.39560984 271.38032339 -359.56469727 273.04418945 C-359.80903454 275.44098769 -360.06902868 277.83565564 -360.33203125 280.23046875 C-360.44004814 281.34013252 -360.44004814 281.34013252 -360.55024719 282.47221375 C-361.04341543 286.79734799 -361.88226076 289.87429476 -364.5 293.375 C-365.304375 294.014375 -366.10875 294.65375 -366.9375 295.3125 C-369.867712 297.67096332 -371.52321037 300.19801666 -373.5 303.375 C-374.5 304.375 -374.5 304.375 -378 304.75 C-383.96071095 304.66438835 -388.87524028 301.86883346 -393.14453125 297.8125 C-396.4539403 293.99761925 -397.64767513 291.0115458 -397.53759766 286.04296875 C-397.51229477 284.73646362 -397.51229477 284.73646362 -397.48648071 283.40356445 C-397.4625827 282.46601318 -397.43868469 281.52846191 -397.4140625 280.5625 C-397.39282318 279.59723389 -397.37158386 278.63196777 -397.34970093 277.63745117 C-397.30344404 275.5964563 -397.25451618 273.55552048 -397.203125 271.51464844 C-397.12531088 268.38749345 -397.05814201 265.2602376 -396.9921875 262.1328125 C-396.9459509 260.15102667 -396.89909667 258.16925513 -396.8515625 256.1875 C-396.83171295 255.24994873 -396.8118634 254.31239746 -396.79141235 253.34643555 C-396.75665298 252.03993042 -396.75665298 252.03993042 -396.72119141 250.70703125 C-396.70263092 249.94108643 -396.68407043 249.1751416 -396.66494751 248.38598633 C-396.5 246.375 -396.5 246.375 -395.5 243.375 C-397.15 242.715 -398.8 242.055 -400.5 241.375 C-400.6124707 242.03765869 -400.72494141 242.70031738 -400.84082031 243.38305664 C-401.65826381 247.09334185 -402.83631351 250.65040727 -404.046875 254.24609375 C-404.29995422 255.0048732 -404.55303345 255.76365265 -404.81378174 256.54542542 C-405.35034402 258.15209707 -405.88836096 259.75828356 -406.42773438 261.36401367 C-407.23645253 263.77215926 -408.04050691 266.1818203 -408.84375 268.59179688 C-410.13559774 272.46063328 -411.44114388 276.32461988 -412.75616455 280.18563843 C-413.24421 281.62212274 -413.72929763 283.05961608 -414.21112061 284.49819946 C-414.86389628 286.44457163 -415.52793658 288.38671898 -416.1953125 290.328125 C-416.56672363 291.42157227 -416.93813477 292.51501953 -417.32080078 293.64160156 C-419.02975163 297.60297085 -420.80900269 299.20854506 -424.5 301.375 C-431.83156018 303.81885339 -438.39919393 302.46378071 -445.37109375 299.54296875 C-448.23035932 297.97430745 -450.13058822 296.60943732 -451.08917236 293.40620422 C-451.69661722 287.74940349 -451.10085833 283.41122192 -449.296875 278.04296875 C-449.05841858 277.28510574 -448.81996216 276.52724274 -448.57427979 275.74641418 C-447.81574545 273.34623538 -447.03400495 270.95446569 -446.25 268.5625 C-445.23870816 265.41208514 -444.23650733 262.25880707 -443.234375 259.10546875 C-442.9928772 258.35175995 -442.75137939 257.59805115 -442.50256348 256.82150269 C-440.56788765 250.73488304 -438.92414104 244.60217155 -437.5 238.375 C-438.36238281 238.32601562 -439.22476563 238.27703125 -440.11328125 238.2265625 C-447.63118339 237.76612076 -455.12942925 237.18000977 -462.625 236.4375 C-463.42977783 236.36289551 -464.23455566 236.28829102 -465.0637207 236.21142578 C-470.00096393 235.70309608 -474.36696633 235.14026924 -478.3125 231.875 C-479.5 230.375 -479.5 230.375 -479.5 228.375 C-480.139375 228.189375 -480.77875 228.00375 -481.4375 227.8125 C-483.5 226.375 -483.5 226.375 -484.4375 223.1875 C-484.51926581 218.19978564 -483.44841979 214.39576211 -479.921875 210.73828125 C-476.41966701 208.76687707 -472.86753394 208.62069907 -468.9375 208.3125 C-468.10702148 208.23507568 -467.27654297 208.15765137 -466.42089844 208.07788086 C-463.78150415 207.8319576 -461.14107932 207.60205456 -458.5 207.375 C-455.08179492 207.07721383 -451.66575179 206.76208593 -448.25 206.4375 C-447.47712646 206.3748999 -446.70425293 206.3122998 -445.90795898 206.24780273 C-440.92499273 205.77393401 -437.07964132 204.51969118 -432.5 202.375 C-431.00944092 202.02646973 -431.00944092 202.02646973 -429.48876953 201.67089844 C-425.43987259 199.91534012 -424.96477647 198.12968576 -423.3515625 194.08203125 C-422.95993423 193.14565071 -422.95993423 193.14565071 -422.56039429 192.19035339 C-421.45039687 189.53418022 -420.39174066 186.85835603 -419.328125 184.18334961 C-413.20757644 168.95886011 -413.20757644 168.95886011 -405.5 164.375 C-402.375 163.625 -402.375 163.625 -399.5 164.375 C-393.31637473 168.33252017 -390.77724013 173.54327961 -388.5 180.375 C-388.41856145 182.00219482 -388.3924698 183.63251719 -388.40234375 185.26171875 C-388.40556641 186.19951172 -388.40878906 187.13730469 -388.41210938 188.10351562 C-388.42048828 189.07998047 -388.42886719 190.05644531 -388.4375 191.0625 C-388.44201172 192.05056641 -388.44652344 193.03863281 -388.45117188 194.05664062 C-388.46295697 196.49615474 -388.47940989 198.93554689 -388.5 201.375 C-387.51 201.705 -386.52 202.035 -385.5 202.375 C-385.38914062 201.39273438 -385.27828125 200.41046875 -385.1640625 199.3984375 C-383.57922892 188.41504383 -379.26700015 177.37252755 -371.5 169.375 C-370.83226562 168.65957031 -370.16453125 167.94414062 -369.4765625 167.20703125 C-366.16714881 164.13961026 -362.89226713 164.08755889 -358.49609375 164.16015625 C-355.51056732 164.48149471 -353.79682965 165.47191257 -351.5 167.375 C-348.28555379 171.70466224 -347.60980966 175.98973812 -346.8125 181.1875 C-346.68294922 181.97576172 -346.55339844 182.76402344 -346.41992188 183.57617188 C-346.10387031 185.50759813 -345.80063711 187.44111445 -345.5 189.375 C-345.11521484 188.26705078 -345.11521484 188.26705078 -344.72265625 187.13671875 C-341.14977873 177.66919482 -335.96050714 169.22637115 -327.5 163.375 C-328.18707031 162.99988281 -328.87414062 162.62476563 -329.58203125 162.23828125 C-330.48308594 161.72652344 -331.38414062 161.21476563 -332.3125 160.6875 C-333.20582031 160.18863281 -334.09914063 159.68976563 -335.01953125 159.17578125 C-337.89352297 157.08930852 -339.15766677 155.66724887 -340.5 152.375 C-340.48551248 148.07703458 -339.95861882 145.98147953 -337.35546875 142.5390625 C-336.47503906 141.70117188 -335.59460938 140.86328125 -334.6875 140 C-333.37845703 138.71996094 -333.37845703 138.71996094 -332.04296875 137.4140625 C-329.69748204 135.53334965 -328.4285953 134.74363437 -325.5 134.375 C-325.5 133.715 -325.5 133.055 -325.5 132.375 C-326.61375 132.0346875 -326.61375 132.0346875 -327.75 131.6875 C-331.1018353 130.08776043 -332.48266141 128.47305569 -334.5 125.375 C-335.25 122.5625 -335.25 122.5625 -335.5 120.375 C-338.14 120.375 -340.78 120.375 -343.5 120.375 C-343.8403125 121.6434375 -343.8403125 121.6434375 -344.1875 122.9375 C-345.97181353 127.61070209 -348.35200081 131.67141443 -352.3125 134.8125 C-356.9522464 136.00557765 -360.57145966 136.44422475 -364.796875 134.1015625 C-366.83978171 132.61647074 -368.73714821 131.18473614 -370.5 129.375 C-370.5 128.715 -370.5 128.055 -370.5 127.375 C-371.16 127.375 -371.82 127.375 -372.5 127.375 C-372.8403125 128.6434375 -372.8403125 128.6434375 -373.1875 129.9375 C-374.69238618 133.87886856 -376.62703255 137.26261859 -379.5 140.375 C-380.16 140.375 -380.82 140.375 -381.5 140.375 C-381.83 141.365 -382.16 142.355 -382.5 143.375 C-390.58494491 150.30945567 -398.28225116 154.03086979 -408.9609375 153.6484375 C-415.39724 152.95529723 -418.99631568 149.40554126 -422.95703125 144.60546875 C-427.57979689 137.92293918 -428.07084843 130.29210661 -428.5 122.375 C-428.99886719 122.77332031 -429.49773437 123.17164063 -430.01171875 123.58203125 C-436.98049224 128.72416034 -444.77619519 131.375 -453.5 131.375 C-453.64695312 131.95765625 -453.79390625 132.5403125 -453.9453125 133.140625 C-457.21863427 145.10518044 -462.47603075 154.76613334 -471.5 163.375 C-474.85617316 165.05308658 -478.34252431 164.64210977 -481.9375 163.8125 C-484.63788416 163.19983111 -484.63788416 163.19983111 -487.875 164 C-492.41899804 164.47006876 -494.55613833 163.63906874 -498.5 161.375 C-501.9756977 158.24866367 -504.08113752 155.1221081 -504.5 150.375 C-508.61835745 150.36172049 -508.61835745 150.36172049 -512.5 151.375 C-513.90946472 153.26606866 -514.68396546 155.116211 -515.5625 157.30078125 C-516.92079835 160.30601634 -519.06674663 162.20480105 -521.5 164.375 C-521.83 164.705 -522.16 165.035 -522.5 165.375 C-523.1496875 165.26800781 -523.799375 165.16101563 -524.46875 165.05078125 C-527.48628738 164.61770876 -529.54022015 164.5750595 -532.5 165.375 C-535.06835838 168.18565634 -537.02878946 171.19967741 -539.13671875 174.3671875 C-542.66234157 178.85434381 -546.95180478 181.13926561 -552.5 182.375 C-555.29391189 182.15214735 -556.89762979 181.8589682 -559.08984375 180.09765625 C-564.76821541 173.10256073 -569.05117575 165.67659466 -572.5 157.375 C-572.81453125 158.47199219 -573.1290625 159.56898438 -573.453125 160.69921875 C-573.8848145 162.15382468 -574.31713991 163.60824199 -574.75 165.0625 C-574.95496094 165.78373047 -575.15992188 166.50496094 -575.37109375 167.24804688 C-576.7153951 171.70868318 -578.18209363 174.96007882 -581.5 178.375 C-582.428125 178.808125 -583.35625 179.24125 -584.3125 179.6875 C-587.56688347 181.41040889 -588.75598577 182.73890594 -591 185.5625 C-594.1035406 189.28948915 -594.1035406 189.28948915 -597.6875 190.0625 C-600.75402557 189.31290486 -602.11026481 188.39133906 -604.5 186.375 C-606.49212671 185.35940599 -608.4911515 184.35710371 -610.5 183.375 C-611.5 182.375 -611.5 182.375 -611.66796875 179.3203125 C-611.48828081 175.09973526 -610.81237154 171.33718595 -609.8125 167.25 C-609.63170898 166.50210205 -609.45091797 165.7542041 -609.26464844 164.98364258 C-607.56295245 158.20222464 -605.18112051 151.82954938 -602.5 145.375 C-601.20072636 142.14887367 -599.91360171 138.91790177 -598.625 135.6875 C-597.93517827 133.95952264 -597.24507325 132.23165834 -596.5546875 130.50390625 C-596.21276367 129.64812988 -595.87083984 128.79235352 -595.51855469 127.91064453 C-594.54511382 125.48730877 -593.55874863 123.06959327 -592.5703125 120.65234375 C-589.71079934 113.5788909 -587.20664258 106.70807948 -585.5625 99.25 C-582.77561684 86.80667519 -576.56335776 74.43835776 -567.5 65.375 C-564.43303499 65.53641921 -562.82026755 66.13008952 -560.375 68 C-555.64094835 73.99646543 -554.93304142 79.95356606 -554.5 87.375 C-553.82195312 86.66214844 -553.14390625 85.94929688 -552.4453125 85.21484375 C-536.85618957 69.04363648 -536.85618957 69.04363648 -526.25 68.6875 C-520.92827883 68.97609659 -517.43852401 69.54012136 -513.5 73.375 C-511.49823785 75.64727054 -509.85166948 77.67166103 -508.5 80.375 C-507.2625 79.1065625 -507.2625 79.1065625 -506 77.8125 C-503.39713722 75.64652435 -501.82488085 75.00397195 -498.4375 75.3125 C-494.58883646 75.87130391 -492.31640757 77.75818037 -489.5 80.375 C-482.0271843 90.97419777 -480.71471173 102.76582293 -479.5 115.375 C-479.33918945 114.81627197 -479.17837891 114.25754395 -479.01269531 113.68188477 C-478.26505271 111.09846495 -477.5075842 108.51802117 -476.75 105.9375 C-476.37101562 104.61975586 -476.37101562 104.61975586 -475.984375 103.27539062 C-472.98788981 93.12479703 -470.85379829 86.02255087 -461.3359375 80.55859375 C-442.46961664 71.04025805 -442.46961664 71.04025805 -432.63671875 72.59375 C-428.45532907 74.12259449 -425.54111946 77.22379477 -422.5 80.375 C-421.93023437 80.94476563 -421.36046875 81.51453125 -420.7734375 82.1015625 C-420.14308594 82.73191406 -420.14308594 82.73191406 -419.5 83.375 C-419.22027344 82.57835938 -418.94054687 81.78171875 -418.65234375 80.9609375 C-416.1532156 74.35552484 -413.94679546 68.83636669 -407.5 65.375 C-404.625 64.625 -404.625 64.625 -401.5 65.375 C-399.90677627 66.34591882 -398.34320696 67.36641156 -396.8046875 68.421875 C-395.99757324 68.97198242 -395.19045898 69.52208984 -394.35888672 70.08886719 C-393.43873779 70.72550293 -393.43873779 70.72550293 -392.5 71.375 C-392.34966309 70.23285034 -392.34966309 70.23285034 -392.19628906 69.06762695 C-391.73092503 65.60509697 -391.24074504 62.14652005 -390.75 58.6875 C-390.59273437 57.48931641 -390.43546875 56.29113281 -390.2734375 55.05664062 C-390.02207031 53.32124023 -390.02207031 53.32124023 -389.765625 51.55078125 C-389.61899414 50.48770752 -389.47236328 49.42463379 -389.32128906 48.3293457 C-388.35927604 44.86878698 -386.96330444 42.96170304 -384.5 40.375 C-382.25 39.5625 -382.25 39.5625 -379.5 39.375 C-378.86578125 39.30152344 -378.2315625 39.22804687 -377.578125 39.15234375 C-373.59549666 38.86038415 -371.96619832 39.04055338 -368.625 41.4375 C-361.81009212 50.85810795 -363.3706931 64.26488628 -363.4375 75.375 C-363.44252424 76.83202971 -363.44708551 78.2890611 -363.45117188 79.74609375 C-363.46210612 83.2890977 -363.47932 86.83203797 -363.5 90.375 C-360.37057328 89.68140478 -360.37057328 89.68140478 -359.09301758 87.17285156 C-358.37601685 85.73377441 -358.37601685 85.73377441 -357.64453125 84.265625 C-357.10828125 83.20633789 -356.57203125 82.14705078 -356.01953125 81.05566406 C-355.45621094 79.92354492 -354.89289063 78.79142578 -354.3125 77.625 C-339.60219572 48.71925209 -339.60219572 48.71925209 -332.1875 45.3125 C-327.52158205 45.42100972 -323.49288543 47.74624672 -319.91796875 50.66796875 C-314.63492573 57.02799575 -312.68589922 66.37460524 -311.5 74.375 C-310.96632813 73.73433594 -310.43265625 73.09367187 -309.8828125 72.43359375 C-300.55560667 61.60564373 -287.20206101 51.85085852 -272.44921875 50.13671875 C-266.93719317 49.95584054 -263.79943235 50.58740483 -259.5 54.375 C-257.625 57.125 -257.625 57.125 -256.5 59.375 C-255.88125 58.26125 -255.2625 57.1475 -254.625 56 C-251.68306778 51.89608931 -249.10593582 51.56506041 -244.30859375 50.75097656 C-238.76526138 50.00891016 -233.20179577 49.61974018 -227.62304688 49.25195312 C-218.63852158 48.74654809 -218.63852158 48.74654809 -210.5 45.375 C-208.12777654 41.98424935 -206.70920912 38.35648124 -205.25 34.5 C-199.67961165 20.46480583 -199.67961165 20.46480583 -192.5 16.875 C-189.5 16.375 -189.5 16.375 -186.875 17.4375 C-181.70637689 21.65400833 -178.91050218 26.07161921 -178.0859375 32.70703125 C-178.01632812 33.85558594 -177.94671875 35.00414062 -177.875 36.1875 C-177.76285156 37.92966797 -177.76285156 37.92966797 -177.6484375 39.70703125 C-177.59945313 40.58746094 -177.55046875 41.46789062 -177.5 42.375 C-176.95472656 40.76431641 -176.95472656 40.76431641 -176.3984375 39.12109375 C-170.54434067 22.36084205 -170.54434067 22.36084205 -163.56640625 18.23046875 C-159.27685793 16.4546444 -154.99667415 16.90936804 -150.6875 18.25 C-145.28092693 23.50209955 -144.79477666 33.2156467 -143.5 40.375 C-142.84 40.045 -142.18 39.715 -141.5 39.375 C-136.84368049 38.58001862 -134.51777961 39.81298516 -130.78515625 42.40234375 C-129.98086182 42.955271 -129.17656738 43.50819824 -128.34790039 44.07788086 C-127.4331897 44.71995483 -127.4331897 44.71995483 -126.5 45.375 C-126.40501221 44.61356689 -126.31002441 43.85213379 -126.2121582 43.06762695 C-125.76754052 39.60435868 -125.29040025 36.14632593 -124.8125 32.6875 C-124.66361328 31.48931641 -124.51472656 30.29113281 -124.36132812 29.05664062 C-123.10867157 20.23892093 -123.10867157 20.23892093 -120.19921875 16.109375 C-115.77292346 13.26527209 -111.67592499 13.00863182 -106.5 13.375 C-102.59830604 15.1632764 -101.27574071 17.39246689 -99.75 21.25 C-98.24199983 26.37550619 -97.96666081 31.53226456 -97.7109375 36.84765625 C-97.47883474 40.72893017 -97.01487859 44.52185118 -96.5 48.375 C-96.28384033 47.69920898 -96.06768066 47.02341797 -95.8449707 46.32714844 C-94.85126632 43.25392298 -93.83223027 40.18968308 -92.8125 37.125 C-92.47283203 36.06152344 -92.13316406 34.99804688 -91.78320312 33.90234375 C-88.46714685 24.04714847 -88.46714685 24.04714847 -83.5 21.375 C-80.5 20.8125 -80.5 20.8125 -77.5 21.375 C-73.37779819 24.56033776 -71.79442033 27.39646027 -70.5 32.375 C-70.12875 33.509375 -69.7575 34.64375 -69.375 35.8125 C-67.41638487 43.78686158 -69.15284757 51.41682173 -70.5 59.375 C-70.7318253 60.79816821 -70.96359401 62.22134564 -71.1953125 63.64453125 C-72.48393783 71.39601582 -73.91953232 78.92641598 -76.5 86.375 C-74.78103516 86.1584375 -74.78103516 86.1584375 -73.02734375 85.9375 C-71.49742285 85.74977964 -69.96747339 85.56229203 -68.4375 85.375 C-67.68533203 85.27960938 -66.93316406 85.18421875 -66.15820312 85.0859375 C-61.56578683 84.52928098 -57.1257865 84.27670972 -52.5 84.375 C-52.561875 83.364375 -52.62375 82.35375 -52.6875 81.3125 C-52.60767364 66.09227407 -46.8272299 41.65356988 -37.06640625 29.60546875 C-34.78716604 27.45647084 -32.71601475 26.4278036 -29.6875 25.6875 C-24.8861086 26.72309422 -21.39281862 29.4683621 -17.5 32.375 C-16.53181646 27.42078421 -15.61677224 22.50530997 -15.09765625 17.48046875 C-15.02853027 16.82054932 -14.9594043 16.16062988 -14.88818359 15.48071289 C-14.69505751 13.57459132 -14.52479294 11.6661957 -14.35546875 9.7578125 C-13.31412639 5.63999293 -11.75247879 4.03522165 -8.5 1.375 C-5.65070267 0.40024039 -3.00330945 0.32178316 0 0 Z M-510.5 82.375 C-509.5 84.375 -509.5 84.375 -509.5 84.375 Z M-512.5 85.375 C-511.5 87.375 -511.5 87.375 -511.5 87.375 Z M-513.5 87.375 C-512.5 89.375 -512.5 89.375 -512.5 89.375 Z M-515.5 90.375 C-516.25023437 91.06464844 -517.00046875 91.75429687 -517.7734375 92.46484375 C-519.91525597 94.43266808 -522.06029304 96.39691957 -524.20703125 98.359375 C-526.19187659 100.17389411 -528.16775079 101.99625555 -530.13671875 103.828125 C-535.94094141 109.17436552 -542.05810943 113.82657248 -548.5 118.375 C-549.83710551 119.36995057 -551.17187358 120.36809485 -552.5 121.375 C-551.1698701 127.17920319 -548.82886927 131.46705171 -545.5 136.375 C-544.84 137.365 -544.18 138.355 -543.5 139.375 C-542.84 139.375 -542.18 139.375 -541.5 139.375 C-540.84 141.025 -540.18 142.675 -539.5 144.375 C-538.68372788 142.71981046 -538.68372788 142.71981046 -538.5 140.375 C-539.49477753 138.03943537 -540.49515117 135.70624929 -541.5 133.375 C-542.0625 130.25 -542.0625 130.25 -541.5 127.375 C-538.37463665 124.0971799 -536.47189782 122.67171996 -532.109375 121.33984375 C-526.96828782 119.19324777 -525.46639948 114.45306454 -523.3125 109.625 C-522.48739251 107.8585727 -521.66059783 106.09293241 -520.83203125 104.328125 C-520.4448291 103.48443359 -520.05762695 102.64074219 -519.65869141 101.77148438 C-518.58608265 99.55304199 -517.40967417 97.46731491 -516.13671875 95.359375 C-515.32654297 93.88210937 -515.32654297 93.88210937 -514.5 92.375 C-514.995 91.385 -514.995 91.385 -515.5 90.375 Z M-309.5 108.375 C-309.17 111.675 -308.84 114.975 -308.5 118.375 C-307.22125 117.446875 -305.9425 116.51875 -304.625 115.5625 C-303.90570313 115.04042969 -303.18640625 114.51835937 -302.4453125 113.98046875 C-300.26971345 112.34227223 -300.26971345 112.34227223 -298.5 109.375 C-302.13 109.045 -305.76 108.715 -309.5 108.375 Z " fill="#FAF9FA" transform="translate(642.5,30.625)"/>
<path d="M0 0 C2.71684208 2.03763156 4.88082598 3.86373124 6.5 6.875 C7.33307273 14.81696 5.19395243 21.74074596 2.9375 29.3125 C2.57325928 30.55515625 2.20901855 31.7978125 1.83374023 33.078125 C-1.10210442 42.91406638 -4.43423172 52.45364806 -8.5 61.875 C-8.83612305 62.66245605 -9.17224609 63.44991211 -9.51855469 64.26123047 C-14.22925339 75.22771982 -19.45714801 85.84037968 -25.09765625 96.35546875 C-27.32141063 100.50747664 -29.42356223 104.71042839 -31.5 108.9375 C-53.74402492 153.81451023 -53.74402492 153.81451023 -68.5 159.875 C-73.3032892 159.95926823 -76.4680009 158.88639221 -80.0234375 155.578125 C-89.17288106 145.02479856 -91.38357659 133.4915464 -90.5 119.875 C-88.49426433 101.40551737 -79.26442246 81.62341357 -70.7421875 65.29296875 C-69.65667787 63.17997987 -68.70672149 61.0736786 -67.8125 58.875 C-66.5 55.875 -66.5 55.875 -65.00831604 53.97831726 C-63.38017381 51.70790472 -62.76008171 49.91169864 -62.05444336 47.22192383 C-60.60326886 42.07671152 -58.72100163 37.2386406 -56.62890625 32.32421875 C-56.26530502 31.4623848 -55.9017038 30.60055084 -55.52708435 29.71260071 C-54.76414425 27.90907113 -53.99849472 26.10668547 -53.23022461 24.30541992 C-52.05971125 21.55594939 -50.90350956 18.80074568 -49.74804688 16.04492188 C-49.00085794 14.28348999 -48.2528399 12.52240952 -47.50390625 10.76171875 C-47.16210831 9.94394455 -46.82031036 9.12617035 -46.46815491 8.28361511 C-43.77629444 2.02446205 -40.81589485 -2.59068485 -35 -6.375 C-34.2471875 -6.87515625 -33.494375 -7.3753125 -32.71875 -7.890625 C-21.26428543 -14.26317923 -9.34690301 -6.71541661 0 0 Z " fill="#EB1C24" transform="translate(725.5,65.125)"/>
<path d="M0 0 C2.1875 0 2.1875 0 5 1 C8.99181348 6.03123306 11.09940707 10.49683677 11.31640625 16.8828125 C11.35830078 18.04941406 11.40019531 19.21601563 11.44335938 20.41796875 C11.48267578 21.64128906 11.52199219 22.86460937 11.5625 24.125 C11.60568359 25.35605469 11.64886719 26.58710938 11.69335938 27.85546875 C11.79968704 30.90352853 11.90171781 33.9516719 12 37 C14.97 37 17.94 37 21 37 C22.54207142 32.97523882 24.03732311 28.96532914 25.32421875 24.8515625 C28.4761169 14.95499471 31.98326036 6.01115976 41 0 C44.47664058 -0.44382646 46.24824474 -0.57122116 49.08203125 1.58203125 C53.99459314 7.775261 54.6427215 19.3755685 54.34057617 27.10424805 C53.9694412 30.25982648 53.16339503 32.9697298 52.1640625 35.984375 C50.00599121 42.79433154 48.39736826 49.63590514 46.9375 56.625 C46.68000977 57.84775635 46.42251953 59.0705127 46.15722656 60.33032227 C43.16647265 74.74109374 40.89189567 89.03408553 39.73339844 103.71069336 C38.52182386 118.31992851 38.52182386 118.31992851 35.65234375 121.48779297 C34.13055255 122.69597179 32.56588964 123.84955047 31 125 C29.15524326 127.6526218 29.15524326 127.6526218 28 130 C22.2524833 129.79833275 18.74607115 128.93647942 14.45123291 125.03646851 C11.50166203 120.89743048 12.13993844 116.03610668 12.2734375 111.14453125 C12.27278793 109.4366468 12.27278793 109.4366468 12.27212524 107.69425964 C12.27346287 104.06596018 12.32016728 100.44035763 12.375 96.8125 C12.41918475 93.1742217 12.45304823 89.53716042 12.45645142 85.89860535 C12.45939945 83.63697382 12.48632907 81.37522277 12.53939819 79.11421204 C12.54745675 76.32450882 12.51065237 73.74225021 12 71 C9.33056813 68.33086219 7.89961349 68.05997423 4.1875 67.8125 C3.465625 67.874375 2.74375 67.93625 2 68 C-3.14214283 78.22458007 -6.56136783 89.04847274 -10.1875 99.875 C-11.13044814 102.67467113 -12.07501742 105.47378618 -13.02082825 108.27249146 C-13.60492901 110.0025106 -14.1871304 111.73317257 -14.76713562 113.46456909 C-18.49852384 124.55930883 -18.49852384 124.55930883 -21.0625 126.8125 C-25.87392585 128.75754449 -30.42149519 128.96206398 -35.32421875 127.1328125 C-40.32928445 124.67071555 -40.32928445 124.67071555 -42 123 C-41.75361592 117.90806236 -41.01494664 113.70403402 -39.171875 108.953125 C-36.92289894 102.92722331 -35.14221862 96.82384681 -33.4375 90.625 C-32.98298462 88.98833374 -32.98298462 88.98833374 -32.51928711 87.31860352 C-30.48161972 79.91958231 -28.56862649 72.51446783 -27 65 C-27.70898438 64.96261719 -28.41796875 64.92523438 -29.1484375 64.88671875 C-33.10371329 64.64250681 -37.05151664 64.33414844 -41 64 C-42.02899414 63.91379395 -43.05798828 63.82758789 -44.11816406 63.73876953 C-47.58170047 63.43492429 -51.04042422 63.09586131 -54.5 62.75 C-55.63356934 62.65291748 -56.76713867 62.55583496 -57.93505859 62.45581055 C-64.57109903 61.75569595 -68.44942832 61.00562885 -73 56 C-75 53 -75 53 -74.75 50.5 C-74 48 -74 48 -72 45 C-69.44389944 44.50995063 -67.07389222 44.20785232 -64.4921875 44.0078125 C-62.93098015 43.85817131 -61.36978257 43.7084281 -59.80859375 43.55859375 C-57.3654866 43.3409871 -54.92200404 43.12899281 -52.47802734 42.92138672 C-34.13203918 41.90421828 -34.13203918 41.90421828 -18.05395508 34.26635742 C-16.69253335 32.22018926 -15.84254609 30.30693592 -15 28 C-14.63793457 27.17612793 -14.27586914 26.35225586 -13.90283203 25.50341797 C-12.34394491 21.93182406 -10.90781464 18.31608535 -9.48242188 14.68945312 C-7.07108317 8.80407953 -4.39612455 4.61118676 0 0 Z " fill="#EB1C24" transform="translate(238,200)"/>
<path d="M0 0 C2.25390625 2.4609375 2.25390625 2.4609375 4 5 C6.81953383 5.45658066 9.12624235 5.65575213 11.9375 5.625 C17.02498595 5.625 20.83237695 5.75763671 25 9 C26.92409938 12.84819877 26.60873619 17.16717473 25.28125 21.1640625 C21.12835577 30.10618153 12.90896315 33.72033714 4 37 C-3.00915455 39.27685912 -10.10549644 41.26480153 -17.20849609 43.22558594 C-20.47752916 44.13247529 -23.73888479 45.0650831 -27 46 C-27.24645264 47.25844727 -27.49290527 48.51689453 -27.74682617 49.81347656 C-28.68287956 54.58582893 -29.62579832 59.35680538 -30.57055664 64.12744141 C-30.97470718 66.17298369 -31.37711629 68.218871 -31.77758789 70.26513672 C-33.86824604 80.941396 -36.02885798 91.60337541 -38.515625 102.1953125 C-38.6971965 103.01872131 -38.87876801 103.84213013 -39.06584167 104.69049072 C-40.24745251 109.54607534 -41.55592715 112.36105632 -45.5625 115.625 C-47.81640625 116.9765625 -47.81640625 116.9765625 -50 118 C-50.68449219 118.37898438 -51.36898437 118.75796875 -52.07421875 119.1484375 C-55.36107899 120.60185643 -57.57811002 119.912504 -61 119 C-66.14839953 116.0945613 -70.28554266 112.82915495 -72 107 C-71.43603187 99.37652329 -69.94055744 91.93183662 -68.49609375 84.43359375 C-68.2533522 83.15895767 -68.01061066 81.88432159 -67.76051331 80.57106018 C-67.12076091 77.21192884 -66.47691143 73.85359598 -65.83215332 70.49542236 C-65.17269513 67.05667324 -64.51718686 63.61717147 -63.86132812 60.17773438 C-62.5780447 53.45108859 -61.29042365 46.72527957 -60 40 C-60.60980713 39.94884033 -61.21961426 39.89768066 -61.84790039 39.8449707 C-62.65219482 39.76851318 -63.45648926 39.69205566 -64.28515625 39.61328125 C-65.47830444 39.50560425 -65.47830444 39.50560425 -66.69555664 39.39575195 C-70.89084704 38.67527672 -73.83422016 36.53670979 -76.375 33.1875 C-77.68989201 28.58537795 -77.2596032 24.8509216 -75.875 20.3125 C-73.1477159 15.49429809 -69.73783378 13.60755142 -64.55859375 11.796875 C-63.18866787 11.4333905 -61.8145108 11.08564736 -60.4375 10.75 C-59.65882568 10.5538208 -58.88015137 10.3576416 -58.07788086 10.15551758 C-55.0573408 9.41228706 -52.03004443 8.70354031 -49 8 C-47.97235535 7.76032501 -47.97235535 7.76032501 -46.9239502 7.51580811 C-42.13420981 6.40121854 -37.33958485 5.31061939 -32.5395813 4.24108887 C-30.90435415 3.87564121 -29.26994918 3.50649251 -27.63644409 3.13342285 C-7.33288495 -1.48249748 -7.33288495 -1.48249748 0 0 Z " fill="#EC1D24" transform="translate(596,172)"/>
<path d="M0 0 C2.89879698 9.46940348 3.23995369 18.6432419 3.25 28.5 C3.25100708 29.18341461 3.25201416 29.86682922 3.25305176 30.57095337 C3.23097712 52.82835549 2.35263784 77.46063032 -14 94.375 C-20.48398661 100.50014002 -25.4173531 103.11436961 -34.4375 103.3125 C-35.54996094 103.34988281 -36.66242188 103.38726562 -37.80859375 103.42578125 C-41.6918587 102.90769572 -43.24667125 101.7337321 -46 99 C-47.04622875 97.02379014 -48.05439935 95.0262871 -49 93 C-49.99 92.505 -49.99 92.505 -51 92 C-51.495 93.485 -51.495 93.485 -52 95 C-57.87092337 101.26596045 -65.72476982 103.09961678 -73.75 105.25 C-76.16231025 105.91880983 -78.57380777 106.59055987 -80.984375 107.265625 C-82.04366211 107.55211914 -83.10294922 107.83861328 -84.19433594 108.13378906 C-86.95857715 108.90175878 -86.95857715 108.90175878 -89.21777344 110.1184082 C-91 111 -91 111 -93.53125 110.83984375 C-100.32046509 108.53022153 -104.04183164 100.6008334 -107.15234375 94.58984375 C-109.29524972 88.04262412 -107.46412131 82.09056619 -105.5625 75.75 C-105.29953125 74.85321533 -105.0365625 73.95643066 -104.765625 73.0324707 C-101.46652075 61.95542688 -97.80562844 50.99396354 -94.04882812 40.06494141 C-93.10356769 37.30265102 -92.18251166 34.53351266 -91.265625 31.76171875 C-90.76232907 30.29881982 -90.25728997 28.83651871 -89.75 27.375 C-89.33234375 26.14523438 -88.9146875 24.91546875 -88.484375 23.6484375 C-87 21 -87 21 -84.453125 19.9765625 C-82 20 -82 20 -80 22 C-79.40234375 24.09375 -79.40234375 24.09375 -78.9375 26.5 C-78.28047869 29.85459814 -78.28047869 29.85459814 -77 33 C-76.76923077 38.53846154 -76.76923077 38.53846154 -78 41 C-78.21966239 42.66070613 -78.39313204 44.32763776 -78.54296875 45.99609375 C-79.89727069 59.68863501 -82.24244901 72.08224828 -87 85 C-86.30028076 84.93941406 -85.60056152 84.87882812 -84.87963867 84.81640625 C-81.64931727 84.5394683 -78.41843344 84.26970003 -75.1875 84 C-74.08728516 83.90460938 -72.98707031 83.80921875 -71.85351562 83.7109375 C-64.88293198 83.13519608 -57.99364163 82.87343416 -51 83 C-51.04640625 82.11441406 -51.0928125 81.22882813 -51.140625 80.31640625 C-51.55041511 66.25182414 -48.25277401 53.98108703 -43.5 40.8125 C-43.07352173 39.62769043 -43.07352173 39.62769043 -42.63842773 38.41894531 C-40.90904956 33.83025631 -39.04577099 29.86485282 -36 26 C-32.02435364 25.13572905 -30.32805664 25.82335412 -26.75 27.75 C-24.09565961 29.92173305 -23.22052402 30.91990401 -22 34 C-22 40.14407998 -23.72237357 45.17687121 -25.875 50.875 C-29.34502297 60.06133098 -30.78492362 69.29004755 -32 79 C-28.39862413 75.68769777 -26.17697608 72.9228444 -24.375 68.375 C-23.99085938 67.43398437 -23.60671875 66.49296875 -23.2109375 65.5234375 C-19.99469452 56.16520792 -18.24837391 46.9307546 -17 37.125 C-16.66191648 34.57155388 -16.32337076 32.01816892 -15.984375 29.46484375 C-15.7378418 27.58321533 -15.7378418 27.58321533 -15.48632812 25.66357422 C-14.77867309 20.33271505 -14.01846694 15.00987964 -13.25 9.6875 C-13.12238281 8.79885254 -12.99476563 7.91020508 -12.86328125 6.99462891 C-12.57625276 4.996314 -12.288256 2.9981382 -12 1 C-7.46331559 -0.66472173 -4.74748444 -1.13035344 0 0 Z " fill="#2A378E" transform="translate(646,37)"/>
<path d="M0 0 C1.10794922 0.0928125 1.10794922 0.0928125 2.23828125 0.1875 C7.24128609 1.84718901 10.04395245 4.96099003 12.734375 9.3046875 C13.29640625 10.48289063 13.8584375 11.66109375 14.4375 12.875 C15.00984375 14.04804688 15.5821875 15.22109375 16.171875 16.4296875 C18.88328723 22.81688023 20.06364821 28.91035524 20.75 35.75 C21.30096774 41.45374834 21.30096774 41.45374834 22.6875 47 C22.84536552 49.85619655 22.9650481 52.70428966 23.0625 55.5625 C23.37731572 63.15605959 24.24034008 70.48467616 25.67138672 77.94750977 C27.00464694 85.03323573 27.5491267 90.42095418 23.75 96.875 C23.20472656 97.82117188 22.65945313 98.76734375 22.09765625 99.7421875 C20.6875 102 20.6875 102 19.6875 103 C14.60045703 103.68217051 10.09065861 103.77753233 5.75 100.8125 C0.78968754 96.65561843 -0.61231465 92.1264063 -2.3125 86 C-15.93791398 84.15584263 -15.93791398 84.15584263 -28.22265625 88.23828125 C-29.92525565 91.10438822 -31.16735021 93.87335506 -32.3125 97 C-33.80826904 99.71911279 -34.88687205 100.91283177 -37.3125 103 C-42.38599919 104.08473804 -46.17359083 103.60051574 -50.75 101.1875 C-51.595625 100.465625 -52.44125 99.74375 -53.3125 99 C-53.93125 98.5875 -54.55 98.175 -55.1875 97.75 C-57.11404466 94.75315275 -56.72365194 91.41053905 -56.3125 88 C-55.64583333 86.33333333 -54.97916667 84.66666667 -54.3125 83 C-53.71078389 76.98283887 -54.77667305 73.49532446 -57.421875 68.12109375 C-58.58756458 65.34491198 -58.61722787 62.97109672 -58.3125 60 C-51.95398816 57.1589628 -51.95398816 57.1589628 -49.08984375 56.44921875 C-37.49426187 53.5254614 -32.76048192 40.97894762 -27.01171875 31.44140625 C-7.50164617 -0.8291975 -7.50164617 -0.8291975 0 0 Z " fill="#EB1C23" transform="translate(482.3125,187)"/>
<path d="M0 0 C1.29808594 0.08378906 2.59617187 0.16757813 3.93359375 0.25390625 C16.1627058 1.40530927 16.1627058 1.40530927 20.703125 6.23828125 C24.57539469 11.49850303 26.74698333 16.12914354 26.37109375 22.78125 C25.09724485 30.39752554 20.39614591 34.97808879 14.92578125 40.1171875 C12.93426403 41.8590469 12.93426403 41.8590469 12 44 C12.556875 44.20625 13.11375 44.4125 13.6875 44.625 C16.96275269 46.57244755 19.27191233 48.61836962 21 52 C22.90679329 60.74300032 19.51781478 67.66798555 15 75 C12.03005585 79.45020203 8.07302649 82.85747582 4.0078125 86.28515625 C2.04319658 87.91995183 2.04319658 87.91995183 0.4921875 89.49609375 C-9.74311505 99.38307448 -24.57100159 103.55815228 -38 107 C-39.49618603 107.39678762 -40.99227957 107.79392416 -42.48828125 108.19140625 C-43.92919693 108.56699129 -45.3705883 108.94075714 -46.8125 109.3125 C-47.80830078 109.57015137 -47.80830078 109.57015137 -48.82421875 109.83300781 C-52.03364387 110.63037017 -54.65857204 111 -58 111 C-56.60905715 106.82717146 -54.3813818 106.2609798 -50.62109375 104.26953125 C-45.55292452 101.8147548 -40.33994067 99.77998022 -35 98 C-35 97.34 -35 96.68 -35 96 C-35.74765625 96.2165625 -36.4953125 96.433125 -37.265625 96.65625 C-38.25046875 96.9346875 -39.2353125 97.213125 -40.25 97.5 C-41.22453125 97.7784375 -42.1990625 98.056875 -43.203125 98.34375 C-46 99 -46 99 -50 99 C-50.7225257 90.20276143 -48.06603837 82.5653581 -45.375 74.3125 C-44.8851691 72.78312284 -44.39534169 71.25374456 -43.90551758 69.72436523 C-40.08814197 57.91333788 -35.95325029 46.21818169 -31.6875 34.5625 C-31.39776306 33.76607086 -31.10802612 32.96964172 -30.80950928 32.14907837 C-18.53920203 -1.44744572 -18.53920203 -1.44744572 0 0 Z " fill="#EB1C23" transform="translate(399,190)"/>
<path d="M0 0 C3.37329915 1.39584792 5.04232662 2.92365611 7 6 C7.98043964 8.94131891 8.11621202 10.82501665 8.09765625 13.88671875 C8.09282227 15.2934082 8.09282227 15.2934082 8.08789062 16.72851562 C8.07532227 18.19321289 8.07532227 18.19321289 8.0625 19.6875 C8.05798828 20.67556641 8.05347656 21.66363281 8.04882812 22.68164062 C8.0370432 25.12111958 8.01910783 27.56056741 8 30 C10.97 30 13.94 30 17 30 C17.14695312 29.27296875 17.29390625 28.5459375 17.4453125 27.796875 C19.54138283 18.40069764 22.70495423 6.80653204 31 1 C34.125 0.5 34.125 0.5 37 1 C41.60222241 4.68401746 41.67130166 10.09361469 42.296875 15.625 C42.70030911 23.69368219 40.63040225 30.66505381 38.37109375 38.3046875 C35.03568681 49.58408876 32.85505098 60.71047868 31.875 72.4375 C31.79636719 73.37835449 31.71773438 74.31920898 31.63671875 75.28857422 C31.48943843 77.07403064 31.34244965 78.85951114 31.19580078 80.64501953 C30.52263489 88.74147607 29.85112125 94.66948434 23.9296875 100.65234375 C22 102 22 102 18.4375 102.3125 C14.59365372 100.8448496 11.5173549 99.28478142 9 96 C8.18875098 92.90552108 8.29805151 89.94277788 8.4140625 86.76171875 C8.42255219 85.88095169 8.43104187 85.00018463 8.43978882 84.09272766 C8.47327844 81.28972125 8.54854546 78.48963115 8.625 75.6875 C8.65510552 73.78324478 8.68248031 71.8789443 8.70703125 69.97460938 C8.7730548 65.3152889 8.87654272 60.65813821 9 56 C6.56786226 54.67963207 5.23669735 54.00251043 2.421875 53.97265625 C-0.25831926 54.81592332 -0.25831926 54.81592332 -1.484375 57.68359375 C-1.90203125 58.92238281 -2.3196875 60.16117188 -2.75 61.4375 C-2.98823486 62.11965576 -3.22646973 62.80181152 -3.47192383 63.50463867 C-4.33659656 65.99607316 -5.1682876 68.49736989 -6 71 C-7.15464961 74.42746458 -8.31509777 77.85279761 -9.48339844 81.27563477 C-10.27941673 83.61381746 -11.06541294 85.95543864 -11.84082031 88.30053711 C-12.2065918 89.38343018 -12.57236328 90.46632324 -12.94921875 91.58203125 C-13.43394653 93.03959839 -13.43394653 93.03959839 -13.9284668 94.52661133 C-15.01547016 97.03570933 -15.80365208 98.38912284 -18 100 C-23.21993515 100.42786354 -27.10354276 100.03023837 -32 98 C-32.495 97.505 -32.495 97.505 -33 97 C-32.99064665 89.69316325 -30.98884662 83.08757287 -28.625 76.25 C-25.77177966 67.9321373 -23.71072278 59.6278558 -22 51 C-22.95366455 50.92483154 -23.9073291 50.84966309 -24.88989258 50.7722168 C-28.43017134 50.48955163 -31.96874392 50.18900728 -35.50708008 49.88305664 C-37.0382494 49.7531756 -38.56983758 49.6281374 -40.10180664 49.50805664 C-42.30483185 49.33452824 -44.50575967 49.14359405 -46.70703125 48.94921875 C-47.39150833 48.89908127 -48.07598541 48.84894379 -48.78120422 48.79728699 C-51.63281191 48.53086311 -53.61694345 48.28092089 -55.95581055 46.56567383 C-57 45 -57 45 -57 43 C-57.66 43 -58.32 43 -59 43 C-59.125 40.125 -59.125 40.125 -59 37 C-56.26746689 34.26746689 -54.45459539 34.58094783 -50.62890625 34.2890625 C-49.33146484 34.17820313 -48.03402344 34.06734375 -46.69726562 33.953125 C-44.64432748 33.78778117 -42.59121085 33.62714596 -40.53735352 33.47363281 C-26.19409675 32.85872286 -26.19409675 32.85872286 -14.26733398 26.00488281 C-12.90225704 23.84537368 -12.00706668 21.77141125 -11.125 19.375 C-5.28465327 4.30601377 -5.28465327 4.30601377 0 0 Z " fill="#2B388F" transform="translate(451,52)"/>
<path d="M0 0 C3 1 3 1 4.67578125 3.3515625 C6.51586102 8.42128081 6.32196838 13.03074376 6.1875 18.375 C6.16719727 19.90833984 6.16719727 19.90833984 6.14648438 21.47265625 C6.11130217 23.98232049 6.06207539 26.4908809 6 29 C10.48928268 25.13453824 14.83952611 21.22185793 19 17 C21.02087138 15.08132272 23.07065697 13.19522086 25.125 11.3125 C25.64964844 10.82716797 26.17429687 10.34183594 26.71484375 9.84179688 C32.36595526 4.65565023 35.45821235 3.51499868 43.03515625 3.59765625 C47.41135324 4.19152751 49.09387433 5.77097148 52 9 C49.73648518 15.60191822 45.56427307 19.51782844 40.37890625 23.9296875 C37.65887857 26.29687087 35.05846135 28.77366774 32.4375 31.25 C27.22212667 36.12862332 21.64707149 40.36102964 15.81225586 44.47167969 C12.37772511 46.7457807 12.37772511 46.7457807 10 50 C9.960008 51.99960012 9.95653201 54.00047242 10 56 C10.99 56.495 10.99 56.495 12 57 C12.67561748 58.6630584 13.33933281 60.33094605 14 62 C14.78868686 63.5746541 15.60329558 65.13647921 16.4375 66.6875 C16.84871094 67.45449219 17.25992188 68.22148437 17.68359375 69.01171875 C19.00106071 71.28060375 19.00106071 71.28060375 22 73 C25.18563427 77.77845141 26.42055866 81.20558661 27 87 C27.33 87.33 27.66 87.66 28 88 C28.6670843 92.66959011 28.07890796 95.44946355 25.4375 99.25 C22.31518955 103.05877587 19.7017136 104.60689967 15 106 C11 106 11 106 9.359375 104.375 C4.1061812 96.622714 0.04409569 88.42287517 -4 80 C-4.66329542 78.66498636 -5.32788008 77.33059274 -6 76 C-6.66 76 -7.32 76 -8 76 C-9.85277776 81.20542322 -11.30799068 86.275785 -12.4375 91.6875 C-13.57465455 96.71090955 -14.49701384 100.19675788 -18 104 C-20 105 -22 106 -24 107 C-26.17855967 109.19836476 -28.10888613 111.55228169 -30 114 C-33.33333333 112.66666667 -36.66666667 111.33333333 -40 110 C-39.6892301 96.66514597 -34.87090359 84.5883387 -29.53125 72.546875 C-27.64097085 68.16837125 -25.97263494 63.72885238 -24.3293457 59.25317383 C-22.98559095 55.60207672 -21.59942991 51.97641007 -20.13671875 48.37109375 C-19.82275146 47.59024414 -19.50878418 46.80939453 -19.18530273 46.00488281 C-18.5850954 44.51775986 -17.97718786 43.03370837 -17.35961914 41.55371094 C-15.76471032 37.57681939 -14.767109 33.88911091 -14.140625 29.64453125 C-13.10869314 23.42103025 -10.54609433 18.47037612 -7.5 13 C-7.00113281 12.07316406 -6.50226563 11.14632812 -5.98828125 10.19140625 C-4.09789236 6.69950828 -2.20370327 3.30555491 0 0 Z " fill="#2A378E" transform="translate(76,101)"/>
<path d="M0 0 C1.27875 0.00257813 2.5575 0.00515625 3.875 0.0078125 C5.15375 0.00523437 6.4325 0.00265625 7.75 0 C10.875 0.1328125 10.875 0.1328125 11.875 1.1328125 C12.11328125 3.49609375 12.11328125 3.49609375 12.1875 6.4453125 C12.24357422 7.89357422 12.24357422 7.89357422 12.30078125 9.37109375 C11.74170407 12.99740168 10.80334056 13.94706548 7.875 16.1328125 C5.36637924 17.23739664 2.95697283 18.18800121 0.375 19.0703125 C-1.05523049 19.58442946 -2.48491349 20.10007186 -3.9140625 20.6171875 C-4.62208008 20.87048828 -5.33009766 21.12378906 -6.05957031 21.38476562 C-9.06357939 22.47274243 -12.03564353 23.62882782 -15 24.8203125 C-16.41925781 25.38298828 -16.41925781 25.38298828 -17.8671875 25.95703125 C-20.42264217 27.0573564 -20.42264217 27.0573564 -22.125 30.1328125 C-20.98160156 30.04902344 -19.83820313 29.96523437 -18.66015625 29.87890625 C-17.16928998 29.77576456 -15.67840347 29.67291503 -14.1875 29.5703125 C-13.43275391 29.51423828 -12.67800781 29.45816406 -11.90039062 29.40039062 C-9.97754042 29.27105093 -8.05110452 29.19764338 -6.125 29.1328125 C-4.58528172 30.67253078 -4.80720293 32.11766921 -4.6875 34.2578125 C-4.79506247 38.78977783 -5.79316135 41.19540583 -8.8671875 44.4921875 C-11.27196421 46.23960311 -13.69422714 47.18713596 -16.45605469 48.24731445 C-19.86342285 49.59769 -22.21363644 50.79399216 -25.125 53.1328125 C-27.3809504 58.4659004 -27.21474136 64.43423584 -27.125 70.1328125 C-22.12616252 68.1783798 -18.26266336 65.97171331 -14 62.6328125 C-6.59246575 56.86070789 -6.59246575 56.86070789 -3.125 55.1328125 C-2.135 55.4628125 -1.145 55.7928125 -0.125 56.1328125 C2.42629535 63.78669854 1.76972903 74.57795915 -1.125 82.1328125 C-6.56348817 90.85342035 -16.26549415 97.46745165 -26.125 100.1328125 C-29.16075158 100.54335666 -32.12740586 100.598863 -35.1875 100.5703125 C-35.95126953 100.59029297 -36.71503906 100.61027344 -37.50195312 100.63085938 C-43.17373534 100.62600755 -46.44876054 99.34698722 -51.125 96.1328125 C-57.02465669 90.07370563 -57.57768345 83.21262289 -57.55664062 75.13305664 C-57.32738162 66.33154446 -54.84377745 58.4402755 -52.125 50.1328125 C-51.4902699 48.11607904 -50.85618897 46.09914118 -50.22265625 44.08203125 C-41.49425157 16.71129536 -41.49425157 16.71129536 -33.125 8.1328125 C-32.279375 7.1634375 -31.43375 6.1940625 -30.5625 5.1953125 C-28.35824904 3.4036521 -27.34544983 3.1311963 -24.4609375 3.15234375 C-22.40927476 3.39355991 -20.359723 3.65331239 -18.3125 3.9296875 C-13.28397887 4.25013247 -8.80133591 2.90508239 -4.125 1.1328125 C-3.125 0.1328125 -3.125 0.1328125 0 0 Z " fill="#EB1B23" transform="translate(346.125,193.8671875)"/>
<path d="M0 0 C2.9375 2.4375 2.9375 2.4375 5 5 C5.495 5.495 5.495 5.495 6 6 C6.3359375 8.84375 6.3359375 8.84375 6 12 C4.1640625 13.90625 4.1640625 13.90625 1.625 15.5 C0.72265625 16.07878906 -0.1796875 16.65757813 -1.109375 17.25390625 C-2.54023438 18.11822266 -2.54023438 18.11822266 -4 19 C-4.95390625 19.58652344 -5.9078125 20.17304687 -6.890625 20.77734375 C-9.24761411 22.20837285 -11.61571055 23.61508294 -14 25 C-13.05898438 25.06316406 -12.11796875 25.12632813 -11.1484375 25.19140625 C0.31401911 26.31866648 0.31401911 26.31866648 3.875 29.75 C7.52765224 35.18939854 6.88801237 41.78391343 6 48 C3.85534422 55.62845916 0.23121177 62.08751413 -5 68 C-5.55429687 68.64710938 -6.10859375 69.29421875 -6.6796875 69.9609375 C-17.42266238 81.56680193 -31.5014221 90.89028686 -45 99 C-46.485 99.99 -46.485 99.99 -48 101 C-53.26520416 102.15243867 -58.65762599 103.13643368 -63.6328125 100.72265625 C-65.56887552 99.24805628 -67.31634555 97.75486642 -69 96 C-68.18241873 91.72547181 -66.47855322 90.60891491 -63 88 C-62.23171875 87.22527344 -61.4634375 86.45054687 -60.671875 85.65234375 C-57.23443196 82.24002821 -53.5013159 79.29880257 -49.71875 76.28125 C-46.98099768 73.98405553 -44.52440974 71.52817752 -42 69 C-39.57459456 66.81572908 -37.10154622 64.68845082 -34.625 62.5625 C-33.99078125 62.01529297 -33.3565625 61.46808594 -32.703125 60.90429688 C-27.48114356 56.40167002 -27.48114356 56.40167002 -25.03417969 54.35888672 C-24.41188477 53.83697754 -23.78958984 53.31506836 -23.1484375 52.77734375 C-22.59075684 52.31448975 -22.03307617 51.85163574 -21.45849609 51.37475586 C-19.74801004 49.86576522 -19.74801004 49.86576522 -18 47 C-19.58367747 47.14204741 -21.16693318 47.28880153 -22.75 47.4375 C-23.63171875 47.51871094 -24.5134375 47.59992188 -25.421875 47.68359375 C-27.9297359 47.9363707 -27.9297359 47.9363707 -30.046875 48.51953125 C-34.55091326 49.62752466 -39.36025039 49.86086854 -43.5 47.6875 C-46.72380335 44.06072123 -46.3965879 39.57602167 -46.3359375 34.97265625 C-45.33220293 26.09077241 -39.32400989 18.93589376 -33 13 C-23.91790735 5.78678562 -11.88818336 -1.32090926 0 0 Z " fill="#2A378E" transform="translate(376,86)"/>
<path d="M0 0 C2.67597818 7.13594183 3.12611903 14.08464914 3.1328125 21.640625 C3.13376923 22.33009216 3.13472595 23.01955933 3.13571167 23.72991943 C3.13638617 25.17183525 3.13458341 26.61375424 3.13037109 28.05566406 C3.12497912 30.25853245 3.13035775 32.46120005 3.13671875 34.6640625 C3.13605848 36.07291711 3.13477838 37.4817716 3.1328125 38.890625 C3.13168457 40.15938477 3.13055664 41.42814453 3.12939453 42.73535156 C3.02479459 45.37442791 2.78983011 47.50109363 2 50 C1.34 50 0.68 50 0 50 C0.05220703 51.41539063 0.05220703 51.41539063 0.10546875 52.859375 C0.42727203 68.12204478 -2.64382311 81.82776286 -13.3046875 93.4375 C-19.63690026 99.2736408 -26.37724438 102.84862087 -35.0625 103.375 C-40.68560855 102.83946585 -43.43844211 100.64831111 -47.25 96.625 C-51.29736363 90.55395455 -51.33723005 84.6204552 -51.3125 77.5625 C-51.32861328 76.64662109 -51.34472656 75.73074219 -51.36132812 74.78710938 C-51.36549712 68.9797051 -50.48644621 65.21454192 -48 60 C-47.47936891 57.11094276 -47.47936891 57.11094276 -47.25 54.1875 C-46.43631503 48.25725363 -44.76548699 42.99436112 -42.625 37.4375 C-42.33270508 36.66365967 -42.04041016 35.88981934 -41.73925781 35.0925293 C-40.09567606 30.97950665 -38.6150145 27.7700416 -35 25 C-30.5357163 25 -27.47149212 27.37709484 -24 30 C-21.17113057 34.24330415 -22.03326652 37.14050385 -23 42 C-24.01513412 45.6398258 -25.23550335 49.19011184 -26.5 52.75 C-27.1381063 54.57718792 -27.77361293 56.40528624 -28.40625 58.234375 C-28.68791016 59.03069336 -28.96957031 59.82701172 -29.25976562 60.64746094 C-30.60519563 64.9233724 -31.12215418 68.83843626 -31.0625 73.3125 C-31.05347656 74.19550781 -31.04445312 75.07851562 -31.03515625 75.98828125 C-31.02355469 76.65214844 -31.01195312 77.31601563 -31 78 C-17.79042029 62.46754928 -16.6966871 38.22887432 -14.75390625 18.85888672 C-14.13444385 12.84248111 -13.25071884 6.9209562 -12 1 C-7.53763531 -0.80619523 -4.68965706 -1.11658501 0 0 Z " fill="#2A378E" transform="translate(271,76)"/>
<path d="M0 0 C0.90492188 0.02320313 1.80984375 0.04640625 2.7421875 0.0703125 C3.65226563 0.08835938 4.56234375 0.10640625 5.5 0.125 C6.19867187 0.14820313 6.89734375 0.17140625 7.6171875 0.1953125 C16.52924436 18.79438769 13.38892686 49.09137157 7.0546875 68.3203125 C6.67570313 69.31611328 6.67570313 69.31611328 6.2890625 70.33203125 C5.59459739 72.25796065 5.20046214 74.12623509 4.8046875 76.1328125 C2.35903074 85.99370056 -4.41413935 93.25524974 -12.3828125 99.1953125 C-18.86367029 103.07854387 -25.00523608 103.09779513 -32.3828125 102.1953125 C-36.6558381 100.55123016 -38.6778067 97.05063164 -40.7578125 93.1328125 C-47.77697808 75.35092636 -38.67832966 48.34543162 -31.69140625 31.54296875 C-30.22593875 28.91387631 -28.68521531 27.12897111 -26.3828125 25.1953125 C-22.42823697 25.29671187 -19.57715701 26.95063798 -16.3828125 29.1953125 C-13.64368294 33.30400684 -13.8478402 36.36955033 -14.3828125 41.1953125 C-15.29229607 44.84901024 -16.52603098 48.34949994 -17.8203125 51.8828125 C-20.43724718 59.20504755 -22.55159539 65.70537853 -22.4453125 73.5703125 C-22.43628906 74.44429688 -22.42726563 75.31828125 -22.41796875 76.21875 C-22.40636719 76.87101562 -22.39476562 77.52328125 -22.3828125 78.1953125 C-7.35737088 61.45644332 -7.41616459 31.76424241 -5.42089844 10.70117188 C-5.31293945 9.61771484 -5.20498047 8.53425781 -5.09375 7.41796875 C-5.00399902 6.45640869 -4.91424805 5.49484863 -4.82177734 4.50415039 C-4.20499628 1.26004664 -3.31937819 0.27208018 0 0 Z " fill="#2B388F" transform="translate(528.3828125,49.8046875)"/>
<path d="M0 0 C3.375 -0.5 3.375 -0.5 7 0 C13.08464412 5.56310319 15.57614866 13.58596028 16.25 21.5625 C16.32734375 22.33682373 16.4046875 23.11114746 16.484375 23.90893555 C17.06501092 30.24732838 17.09897396 36.50102102 16.875 42.86328125 C17.00314279 46.07886442 17.67676296 48.09982258 19 51 C20.41196888 58.05984438 21.24916452 65.76352829 18.625 72.5625 C17 75 17 75 15 77 C12.1875 77.4375 12.1875 77.4375 9 77 C5.37891989 74.11959536 3.28830128 71.45049531 2 67 C2 66.01 2 65.02 2 64 C-3.17645475 63.77861703 -7.93963743 63.79437943 -13 65 C-15.73177776 67.98652687 -16.71770752 71.21332409 -18 75 C-20.09177016 77.74544833 -20.99643472 78.75588953 -24.3125 79.5625 C-28.24911043 78.73855828 -30.91060689 76.49288205 -34 74 C-33.51421457 70.87709365 -33.0013988 68.00419641 -32 65 C-31.56335317 58.66862103 -32.7092624 53.89046811 -35 48 C-32.36064377 45.67115627 -30.45867123 44.12553107 -27.03125 43.1875 C-23.25719468 41.7090041 -22.52039914 40.40602277 -20.625 36.875 C-20.03976562 35.80121094 -19.45453125 34.72742188 -18.8515625 33.62109375 C-16.50103357 29.07464288 -14.24507437 24.47992977 -11.99414062 19.88354492 C-9.0716985 13.97955671 -5.69126518 8.45708663 -2 3 C-1.34 2.01 -0.68 1.02 0 0 Z " fill="#2A378E" transform="translate(309,82)"/>
<path d="M0 0 C3.31258663 0.283936 4.91390671 0.93280524 7.5625 3 C14.40749331 11.42460714 14.94378349 20.56509817 15.76635742 31.03637695 C15.95432334 33.01167207 15.95432334 33.01167207 16.51416016 34.92724609 C17.5346875 39.2811542 17.18472047 43.86247552 17.1875 48.3125 C17.19974609 49.33279297 17.21199219 50.35308594 17.22460938 51.40429688 C17.23550833 57.02452228 16.7117463 61.60296462 15 67 C14.76200064 70.0478076 14.76200064 70.0478076 14.875 72.9375 C14.89304688 73.89527344 14.91109375 74.85304688 14.9296875 75.83984375 C14.95289063 76.55269531 14.97609375 77.26554687 15 78 C12.07196891 78.29776587 9.85557986 78.50237053 7 78 C2.30328967 73.90286971 1.70323943 71.2255196 1 65 C-4.27742948 64.58568443 -8.87785824 64.5327474 -14 66 C-16.56091529 69.24555931 -17.89772242 72.21995424 -19.3125 76.09375 C-21 79 -21 79 -24.51171875 79.98828125 C-28.42297169 80.00142096 -29.94300758 79.35825129 -33 77 C-33.66 76.34 -34.32 75.68 -35 75 C-34.66616536 71.06075121 -34.07804059 67.36418944 -33.25 63.5 C-32.96799759 59.55196627 -33.74735195 57.40538876 -35.40625 53.89453125 C-36.1463469 51.53303786 -35.86142933 50.29554072 -35 48 C-32.74214173 45.82576611 -31.33463983 45.05451997 -28.21875 44.546875 C-23.149701 42.11077864 -21.64300696 37.76609341 -19.1875 32.875 C-18.14013572 30.87327242 -17.09195167 28.87197357 -16.04296875 26.87109375 C-15.53040527 25.87835449 -15.0178418 24.88561523 -14.48974609 23.86279297 C-12.39945771 19.84595889 -10.21601365 15.88599907 -8 11.9375 C-7.47635864 10.98496338 -7.47635864 10.98496338 -6.94213867 10.01318359 C-4.91729028 6.38863116 -2.6826181 3.16764503 0 0 Z " fill="#2A378E" transform="translate(141,111)"/>
<path d="M0 0 C4.92243832 3.97175281 8.56914682 8.2424231 9.546875 14.59765625 C10.01273602 24.00069321 7.30678818 32.78764857 1.0078125 39.90625 C-3.26429341 43.76431922 -8.43548086 45.29749612 -13.8671875 46.90625 C-14.8571875 47.23625 -15.8471875 47.56625 -16.8671875 47.90625 C-18.42837178 47.97365865 -19.9922127 47.99139456 -21.5546875 47.96875 C-22.76705078 47.95521484 -22.76705078 47.95521484 -24.00390625 47.94140625 C-24.61878906 47.92980469 -25.23367187 47.91820312 -25.8671875 47.90625 C-26.1765625 49.700625 -26.1765625 49.700625 -26.4921875 51.53125 C-27.47797034 55.92882028 -28.96506361 60.05994443 -30.6796875 64.21875 C-31.16050781 65.39050781 -31.64132813 66.56226563 -32.13671875 67.76953125 C-33.99474519 71.1374663 -35.80444426 72.65234717 -38.8671875 74.90625 C-39.5271875 75.97875 -40.1871875 77.05125 -40.8671875 78.15625 C-42.8671875 80.90625 -42.8671875 80.90625 -45.4296875 81.46875 C-48.28789096 80.80916459 -49.08695518 80.20088373 -50.8671875 77.90625 C-53.01012774 67.62013684 -48.72562596 56.67080681 -45.8671875 46.90625 C-45.20925242 44.60297395 -44.55172247 42.29958215 -43.89453125 39.99609375 C-43.19960905 37.59065627 -42.50300238 35.18570476 -41.8046875 32.78125 C-41.47662109 31.64357178 -41.14855469 30.50589355 -40.81054688 29.33374023 C-35.37140924 10.93322447 -35.37140924 10.93322447 -27.51171875 6.25390625 C-7.08989746 -4.15307801 -7.08989746 -4.15307801 0 0 Z " fill="#2B378E" transform="translate(210.8671875,109.09375)"/>
<path d="M0 0 C2.71684208 2.03763156 4.88082598 3.86373124 6.5 6.875 C7.33307273 14.81696 5.19395243 21.74074596 2.9375 29.3125 C2.57325928 30.55515625 2.20901855 31.7978125 1.83374023 33.078125 C-1.10210442 42.91406638 -4.43423172 52.45364806 -8.5 61.875 C-8.83612305 62.66245605 -9.17224609 63.44991211 -9.51855469 64.26123047 C-14.22925339 75.22771982 -19.45714801 85.84037968 -25.09765625 96.35546875 C-27.32141063 100.50747664 -29.42356223 104.71042839 -31.5 108.9375 C-53.74402492 153.81451023 -53.74402492 153.81451023 -68.5 159.875 C-73.3032892 159.95926823 -76.4680009 158.88639221 -80.0234375 155.578125 C-89.17288106 145.02479856 -91.38357659 133.4915464 -90.5 119.875 C-88.49426433 101.40551737 -79.26442246 81.62341357 -70.7421875 65.29296875 C-69.65667787 63.17997987 -68.70672149 61.0736786 -67.8125 58.875 C-66.5 55.875 -66.5 55.875 -65.00831604 53.97831726 C-63.38017381 51.70790472 -62.76008171 49.91169864 -62.05444336 47.22192383 C-60.60326886 42.07671152 -58.72100163 37.2386406 -56.62890625 32.32421875 C-56.26530502 31.4623848 -55.9017038 30.60055084 -55.52708435 29.71260071 C-54.76414425 27.90907113 -53.99849472 26.10668547 -53.23022461 24.30541992 C-52.05971125 21.55594939 -50.90350956 18.80074568 -49.74804688 16.04492188 C-49.00085794 14.28348999 -48.2528399 12.52240952 -47.50390625 10.76171875 C-47.16210831 9.94394455 -46.82031036 9.12617035 -46.46815491 8.28361511 C-43.77629444 2.02446205 -40.81589485 -2.59068485 -35 -6.375 C-34.2471875 -6.87515625 -33.494375 -7.3753125 -32.71875 -7.890625 C-21.26428543 -14.26317923 -9.34690301 -6.71541661 0 0 Z M-38.890625 4.7421875 C-42.12302502 10.85107571 -44.80202983 17.20446625 -47.5 23.5625 C-48.26183594 25.32883789 -48.26183594 25.32883789 -49.0390625 27.13085938 C-52.08043177 34.254682 -54.82603643 41.39991059 -57.32421875 48.72973633 C-58.82618652 52.74756249 -60.47709172 56.51792467 -63.06640625 59.953125 C-64.66975388 62.10257196 -65.50626847 64.11507125 -66.4375 66.625 C-67.61298392 69.68569397 -68.82758936 72.61064404 -70.375 75.5 C-73.33087629 81.28523648 -75.46002543 87.41156927 -77.64404297 93.51806641 C-78.54781386 96.00665857 -79.49492771 98.47658449 -80.44140625 100.94921875 C-85.2287761 113.83663674 -88.69911802 127.0129977 -83.875 140.5 C-81.13575944 146.13445211 -77.74662845 151.3772477 -72.5 154.875 C-67.68682189 154.74491411 -64.68608176 152.22762694 -61.5 148.875 C-47.89338971 132.78256668 -38.88534578 113.22497572 -29.5625 94.5 C-28.98795074 93.34847443 -28.41340149 92.19694885 -27.82144165 91.01052856 C-16.60958319 68.49461433 -6.20652749 46.47976788 -0.5 21.875 C-0.14164063 20.62332031 0.21671875 19.37164062 0.5859375 18.08203125 C1.65892758 14.31739512 2.13597596 11.76151973 1.5 7.875 C-3.26844156 1.30999771 -13.38239645 -3.80202818 -21.0234375 -5.77734375 C-28.85875831 -6.340937 -35.09267624 -1.82472032 -38.890625 4.7421875 Z " fill="#FEFAFA" transform="translate(725.5,65.125)"/>
<path d="M0 0 C4.55130497 3.9205271 7.08319597 7.98984026 8 14 C8.22629464 22.37290155 5.76563398 29.80017342 0.13671875 36.078125 C-7.11430893 42.78004573 -14.90957541 45.36160934 -24.7265625 45.21484375 C-30.93161491 44.62845564 -35.08999901 41.64973091 -39 37 C-42.84212886 31.55698412 -44.26027872 26.70217709 -44 20 C-41.3916544 11.10093853 -35.02558204 3.56775148 -27 -1 C-17.5859128 -4.97250495 -8.88722036 -5.58531409 0 0 Z " fill="#EB1C24" transform="translate(659,238)"/>
<path d="M0 0 C2.25390625 2.4609375 2.25390625 2.4609375 4 5 C6.81953383 5.45658066 9.12624235 5.65575213 11.9375 5.625 C17.02498595 5.625 20.83237695 5.75763671 25 9 C26.92409938 12.84819877 26.60873619 17.16717473 25.28125 21.1640625 C21.12835577 30.10618153 12.90896315 33.72033714 4 37 C-3.00915455 39.27685912 -10.10549644 41.26480153 -17.20849609 43.22558594 C-20.47752916 44.13247529 -23.73888479 45.0650831 -27 46 C-27.24645264 47.25844727 -27.49290527 48.51689453 -27.74682617 49.81347656 C-28.68287956 54.58582893 -29.62579832 59.35680538 -30.57055664 64.12744141 C-30.97470718 66.17298369 -31.37711629 68.218871 -31.77758789 70.26513672 C-33.86824604 80.941396 -36.02885798 91.60337541 -38.515625 102.1953125 C-38.6971965 103.01872131 -38.87876801 103.84213013 -39.06584167 104.69049072 C-40.24745251 109.54607534 -41.55592715 112.36105632 -45.5625 115.625 C-47.81640625 116.9765625 -47.81640625 116.9765625 -50 118 C-50.68449219 118.37898438 -51.36898437 118.75796875 -52.07421875 119.1484375 C-55.36107899 120.60185643 -57.57811002 119.912504 -61 119 C-66.14839953 116.0945613 -70.28554266 112.82915495 -72 107 C-71.43603187 99.37652329 -69.94055744 91.93183662 -68.49609375 84.43359375 C-68.2533522 83.15895767 -68.01061066 81.88432159 -67.76051331 80.57106018 C-67.12076091 77.21192884 -66.47691143 73.85359598 -65.83215332 70.49542236 C-65.17269513 67.05667324 -64.51718686 63.61717147 -63.86132812 60.17773438 C-62.5780447 53.45108859 -61.29042365 46.72527957 -60 40 C-60.60980713 39.94884033 -61.21961426 39.89768066 -61.84790039 39.8449707 C-62.65219482 39.76851318 -63.45648926 39.69205566 -64.28515625 39.61328125 C-65.47830444 39.50560425 -65.47830444 39.50560425 -66.69555664 39.39575195 C-70.89084704 38.67527672 -73.83422016 36.53670979 -76.375 33.1875 C-77.68989201 28.58537795 -77.2596032 24.8509216 -75.875 20.3125 C-73.1477159 15.49429809 -69.73783378 13.60755142 -64.55859375 11.796875 C-63.18866787 11.4333905 -61.8145108 11.08564736 -60.4375 10.75 C-59.65882568 10.5538208 -58.88015137 10.3576416 -58.07788086 10.15551758 C-55.0573408 9.41228706 -52.03004443 8.70354031 -49 8 C-47.97235535 7.76032501 -47.97235535 7.76032501 -46.9239502 7.51580811 C-42.13420981 6.40121854 -37.33958485 5.31061939 -32.5395813 4.24108887 C-30.90435415 3.87564121 -29.26994918 3.50649251 -27.63644409 3.13342285 C-7.33288495 -1.48249748 -7.33288495 -1.48249748 0 0 Z M-19.5625 6.6875 C-21.22245409 7.05689918 -22.88262149 7.4253408 -24.54296875 7.79296875 C-25.42001465 7.98938965 -26.29706055 8.18581055 -27.20068359 8.38818359 C-30.16583385 9.03624452 -33.13730778 9.64196408 -36.11328125 10.23828125 C-54.18674538 12.78663776 -54.18674538 12.78663776 -70.3125 20.25 C-72.73434288 24.19670691 -72.5921138 26.41111803 -72 31 C-70.20581464 33.71394825 -68.82538131 34.04939737 -65.64453125 34.94921875 C-64.37996094 35.19285156 -63.11539063 35.43648437 -61.8125 35.6875 C-60.54019531 35.93886719 -59.26789062 36.19023437 -57.95703125 36.44921875 C-56.98121094 36.63097656 -56.00539063 36.81273437 -55 37 C-55.71763591 41.68932379 -56.44811362 46.37656157 -57.1875 51.0625 C-57.29815796 51.76539154 -57.40881592 52.46828308 -57.52282715 53.19247437 C-58.96837039 62.31444478 -60.64450053 71.31556579 -62.75 80.3125 C-64.35350794 87.28232446 -65.5396342 94.10636775 -66 101.25 C-66.05381836 101.99548096 -66.10763672 102.74096191 -66.16308594 103.5090332 C-66.3482113 107.4422829 -66.3482113 107.4422829 -64.6484375 110.875 C-63.83246094 111.431875 -63.83246094 111.431875 -63 112 C-62.21625 112.5775 -61.4325 113.155 -60.625 113.75 C-58.12718868 115.17018204 -58.12718868 115.17018204 -55.625 115 C-50.71427056 113.12924593 -47.21130808 111.44708702 -44.83984375 106.65625 C-40.26732265 92.88314999 -38.22864589 77.9964667 -35.7109375 63.7421875 C-35.49751709 62.56229248 -35.28409668 61.38239746 -35.06420898 60.16674805 C-34.65399925 57.88942085 -34.25713857 55.6096388 -33.87524414 53.32739258 C-33.68824951 52.29509521 -33.50125488 51.26279785 -33.30859375 50.19921875 C-33.15189209 49.29002686 -32.99519043 48.38083496 -32.83374023 47.4440918 C-31.7959436 44.40181299 -30.47957995 43.01914258 -28 41 C-26.09985352 40.15039062 -26.09985352 40.15039062 -24.12890625 39.65625 C-23.39639648 39.46434082 -22.66388672 39.27243164 -21.90917969 39.07470703 C-21.13477539 38.88505371 -20.36037109 38.69540039 -19.5625 38.5 C-17.93332778 38.07132202 -16.30442248 37.6416284 -14.67578125 37.2109375 C-13.87736816 37.00436523 -13.07895508 36.79779297 -12.25634766 36.58496094 C4.58606552 32.4139378 4.58606552 32.4139378 18.8515625 23.07421875 C20.15095625 20.72735453 20.52102034 18.97659025 20.75 16.3125 C20.82734375 15.52488281 20.9046875 14.73726562 20.984375 13.92578125 C20.98953125 13.29027344 20.9946875 12.65476563 21 12 C19.41596476 10.41596476 17.7228362 10.78025065 15.52734375 10.68359375 C14.62822266 10.64169922 13.72910156 10.59980469 12.80273438 10.55664062 C11.85720703 10.51732422 10.91167969 10.47800781 9.9375 10.4375 C8.98810547 10.39431641 8.03871094 10.35113281 7.06054688 10.30664062 C4.70718647 10.20020724 2.35371646 10.09818992 0 10 C-0.99 7.525 -0.99 7.525 -2 5 C-8.1662454 4.8359718 -13.56965522 5.29436326 -19.5625 6.6875 Z " fill="#FEF9F9" transform="translate(596,172)"/>
<path d="M0 0 C4.55130497 3.9205271 7.08319597 7.98984026 8 14 C8.22629464 22.37290155 5.76563398 29.80017342 0.13671875 36.078125 C-7.11430893 42.78004573 -14.90957541 45.36160934 -24.7265625 45.21484375 C-30.93161491 44.62845564 -35.08999901 41.64973091 -39 37 C-42.84212886 31.55698412 -44.26027872 26.70217709 -44 20 C-41.3916544 11.10093853 -35.02558204 3.56775148 -27 -1 C-17.5859128 -4.97250495 -8.88722036 -5.58531409 0 0 Z M-31 8 C-32.03640625 8.99773437 -32.03640625 8.99773437 -33.09375 10.015625 C-36.76103457 14.0612802 -38.45276028 17.17582904 -38.625 22.6875 C-38.16885684 28.86694888 -36.32171634 32.89762868 -32.0625 37.375 C-27.97428406 40.64384777 -24.17624741 40.797018 -19.06640625 40.515625 C-11.6367876 39.26631333 -5.74632785 35.80997485 -1.18359375 29.8125 C2.06392289 24.83940521 3.67458172 20.19892928 3.4921875 14.28125 C2.32688189 8.88015097 -1.5366665 4.97555567 -6 2 C-15.61971317 0.87589869 -23.77340873 0.83264308 -31 8 Z " fill="#FEF9F9" transform="translate(659,238)"/>
<path d="M0 0 C3.9375 0.5 3.9375 0.5 6.9375 2.5 C5.4753836 6.06096091 3.5996587 7.86170239 0.5625 10.1875 C-0.20835937 10.78949219 -0.97921875 11.39148438 -1.7734375 12.01171875 C-3.94497501 13.4235887 -5.53330352 14.06691841 -8.0625 14.5 C-8.37942883 9.90453192 -8.39299043 7.27114435 -6.5625 3 C-3.89684657 0.33434657 -3.52834742 0.10396604 0 0 Z " fill="#FDF2F3" transform="translate(388.0625,251.5)"/>
<path d="M0 0 C3.5019499 0.28015599 3.92208046 0.74368436 6.125 3.25 C-0.09759874 11.0549778 -0.09759874 11.0549778 -4.875 13.25 C-5.865 13.25 -6.855 13.25 -7.875 13.25 C-8.37977602 7.94985182 -7.08317314 5.43034682 -3.875 1.25 C-2.875 0.25 -2.875 0.25 0 0 Z " fill="#FEF6F6" transform="translate(400.875,209.75)"/>
<path d="M0 0 C-1.31682654 5.66235414 -3.36557635 7.78427747 -8 11 C-8.99 11 -9.98 11 -11 11 C-10.57576756 9.53775201 -10.13509755 8.08026588 -9.6875 6.625 C-9.44386719 5.81289062 -9.20023438 5.00078125 -8.94921875 4.1640625 C-7.06711758 -0.12681835 -4.21289079 -0.22772383 0 0 Z " fill="#EAEBF3" transform="translate(201,128)"/>
<path d="M0 0 C1.41441874 2.82883747 1.31900332 4.87376745 1 8 C-0.8125 9.875 -0.8125 9.875 -3 11 C-3.99 11 -4.98 11 -6 11 C-6.48951049 4.63636364 -6.48951049 4.63636364 -4.125 1.5625 C-2 0 -2 0 0 0 Z " fill="#FDEFF0" transform="translate(476,233)"/>
<path d="M0 0 C0.33 1.32 0.66 2.64 1 4 C-3.26616316 5.13764351 -6.56486311 6 -11 6 C-10 3 -10 3 -7.75 1.3125 C-4.8635748 -0.06511203 -3.14826764 -0.26985151 0 0 Z " fill="#EC262A" transform="translate(352,295)"/>
<path d="M0 0 C0.66 0.33 1.32 0.66 2 1 C-0.2830136 3.50802429 -2.5777855 6.00498229 -4.875 8.5 C-5.85146484 9.57314453 -5.85146484 9.57314453 -6.84765625 10.66796875 C-7.47285156 11.34472656 -8.09804687 12.02148438 -8.7421875 12.71875 C-9.3182373 13.34716797 -9.89428711 13.97558594 -10.48779297 14.62304688 C-12 16 -12 16 -14 16 C-11.11678807 9.18513544 -5.60614018 4.55599865 0 0 Z " fill="#1B2885" transform="translate(99,114)"/>
<path d="M0 0 C0.99 0.33 1.98 0.66 3 1 C3.125 3.875 3.125 3.875 3 7 C2.34 7.66 1.68 8.32 1 9 C0.01 9 -0.98 9 -2 9 C-1.125 2.25 -1.125 2.25 0 0 Z " fill="#EBEDF4" transform="translate(137,146)"/>
<path d="M0 0 C0.66 0.33 1.32 0.66 2 1 C2.125 3.875 2.125 3.875 2 7 C1.34 7.66 0.68 8.32 0 9 C-0.99 9 -1.98 9 -3 9 C-2.25 2.25 -2.25 2.25 0 0 Z " fill="#EAEBF3" transform="translate(307,116)"/>
<path d="M0 0 C-1.34260917 2.93050271 -2.87148538 5.20913591 -5 7.625 C-5.515625 8.21539062 -6.03125 8.80578125 -6.5625 9.4140625 C-7.67451212 10.64090196 -8.82916568 11.82916568 -10 13 C-9.47470631 8.8911959 -8.33192009 6.74480159 -5.5625 3.6875 C-4.94503906 2.99011719 -4.32757812 2.29273438 -3.69140625 1.57421875 C-2 0 -2 0 0 0 Z " fill="#EA161A" transform="translate(632,244)"/>
<path d="M0 0 C4.52838096 3.49863954 8.03294171 6.44595307 10 12 C10.1875 15.375 10.1875 15.375 10 18 C9.67 18 9.34 18 9 18 C8.814375 17.030625 8.62875 16.06125 8.4375 15.0625 C7.19487447 10.55222955 4.43486767 7.44420024 1.4609375 3.91796875 C0 2 0 2 0 0 Z " fill="#1C2A87" transform="translate(91,168)"/>
<path d="M0 0 C1.32 0.33 2.64 0.66 4 1 C3.01 1 2.02 1 1 1 C0.7525 1.639375 0.505 2.27875 0.25 2.9375 C-1 5 -1 5 -3.125 5.75 C-4.053125 5.87375 -4.053125 5.87375 -5 6 C-3.35 4.02 -1.7 2.04 0 0 Z " fill="#EC282C" transform="translate(238,200)"/>
</svg>
